<svg width="28" height="28" fill="none" xmlns="http://www.w3.org/2000/svg"><path d="M23.297 12.122a.547.547 0 00-.547.547v12.597c0 .904-.736 1.64-1.64 1.64H6.89c-.904 0-1.64-.736-1.64-1.64V2.734c0-.904.736-1.64 1.64-1.64h14.22c.904 0 1.64.736 1.64 1.64v5.56a.547.547 0 101.094 0v-5.56A2.738 2.738 0 0021.109 0H6.891a2.737 2.737 0 00-2.735 2.734v22.532A2.737 2.737 0 006.891 28h14.218a2.738 2.738 0 002.735-2.734V12.669a.547.547 0 00-.547-.547z" fill="#F3CD82"/><path d="M21.656 3.281c0-.603-.49-1.094-1.093-1.094H7.438c-.604 0-1.094.491-1.094 1.094v5.013c0 .603.49 1.094 1.093 1.094h13.125c.604 0 1.094-.49 1.094-1.094V3.281zm-1.093 5.013l-13.125.001V3.28h13.124v5.013z" fill="#F3CD82"/><path d="M14 15.95a2.19 2.19 0 00-2.188 2.188A2.19 2.19 0 0014 20.326a2.19 2.19 0 002.188-2.188A2.19 2.19 0 0014 15.95zm0 3.282a1.095 1.095 0 111.094-1.094c0 .603-.49 1.094-1.094 1.094zM8.531 15.95a2.19 2.19 0 00-2.187 2.188 2.19 2.19 0 002.187 2.188 2.19 2.19 0 002.188-2.188A2.19 2.19 0 008.53 15.95zm0 3.282a1.095 1.095 0 111.094-1.094c0 .603-.49 1.094-1.094 1.094zM14 10.482a2.19 2.19 0 00-2.188 2.187A2.19 2.19 0 0014 14.857a2.19 2.19 0 002.188-2.188A2.19 2.19 0 0014 10.482zm0 3.281a1.095 1.095 0 010-2.188 1.095 1.095 0 010 2.188zm5.469-3.281a2.19 2.19 0 00-2.188 2.187 2.19 2.19 0 002.188 2.188 2.19 2.19 0 002.187-2.188 2.19 2.19 0 00-2.187-2.187zm0 3.281a1.095 1.095 0 010-2.188 1.095 1.095 0 010 2.188zM8.531 10.482a2.19 2.19 0 00-2.187 2.187 2.19 2.19 0 002.187 2.188 2.19 2.19 0 002.188-2.188 2.19 2.19 0 00-2.188-2.187zm0 3.281a1.095 1.095 0 010-2.188 1.095 1.095 0 010 2.188zM14 21.42a2.19 2.19 0 00-2.188 2.187A2.19 2.19 0 0014 25.794a2.19 2.19 0 002.188-2.187A2.19 2.19 0 0014 21.419zm0 3.28a1.095 1.095 0 010-2.187 1.095 1.095 0 010 2.188zm-5.469-3.28a2.19 2.19 0 00-2.187 2.187 2.19 2.19 0 002.187 2.187 2.19 2.19 0 002.188-2.187 2.19 2.19 0 00-2.188-2.188zm0 3.28a1.095 1.095 0 010-2.187 1.095 1.095 0 010 2.188z" fill="#F3F3F3"/><path d="M14 6.335a.547.547 0 100-1.094.547.547 0 000 1.094zm3.555 0a.547.547 0 100-1.094.547.547 0 000 1.094zm-7.11 0a.547.547 0 100-1.094.547.547 0 000 1.094zm9.024 9.615a2.19 2.19 0 00-2.188 2.188v5.469a2.19 2.19 0 002.188 2.187 2.19 2.19 0 002.187-2.187v-5.469a2.19 2.19 0 00-2.187-2.188zm1.093 7.657a1.095 1.095 0 01-2.187 0v-5.469a1.095 1.095 0 012.188 0v5.469zm2.735-12.578a.547.547 0 100-1.094.547.547 0 000 1.094z" fill="#F3CD82"/></svg>