<svg width="31" height="31" fill="none" xmlns="http://www.w3.org/2000/svg"><g clip-path="url(#clip0)"><path d="M9.361 8.254a.517.517 0 10-.25-1.002 9.287 9.287 0 00-7.044 9.023.517.517 0 001.033 0 8.255 8.255 0 016.261-8.02z" fill="#F3CD82"/><path d="M29.45 19.375h-6.717v-3.1a11.28 11.28 0 00-2.002-6.437l.28-3.495a1.55 1.55 0 00-.556-1.319 14.26 14.26 0 00-5.07-2.647 1.538 1.538 0 00-1.486.385l-2.225 2.161c-.1-.002-.204-.015-.307-.015C5.092 4.915.007 10 0 16.275v9.3a3.103 3.103 0 003.1 3.1h16.017a3.617 3.617 0 003.575-3.1h4.691v1.55c0 .856.694 1.55 1.55 1.55h.517a1.55 1.55 0 001.55-1.55v-6.2a1.55 1.55 0 00-1.55-1.55zM14.622 3.5a.497.497 0 01.481-.13 13.237 13.237 0 014.699 2.454.516.516 0 01.179.438l-.193 2.398c-.128-.14-.248-.287-.384-.423a11.272 11.272 0 00-6.37-3.194L14.622 3.5zM6.2 27.642H3.1a2.067 2.067 0 01-2.067-2.067v-4.65c0-.285.232-.517.517-.517h.397c.19 0 .363.103.453.269a11.29 11.29 0 004.563 4.581.51.51 0 01.27.452v1.415a.517.517 0 01-.516.517H6.2zm15.5-2.584a2.586 2.586 0 01-2.583 2.584H8.172c.06-.166.093-.34.095-.517V25.71a1.533 1.533 0 00-.831-1.37 10.436 10.436 0 01-4.13-4.16 1.55 1.55 0 00-1.359-.805H1.55a1.532 1.532 0 00-.517.095v-3.195c0-5.707 4.627-10.333 10.334-10.333S21.7 10.568 21.7 16.275v8.783zm1.033-.516v-4.134h1.55v1.034a.517.517 0 001.034 0v-1.034h2.066v4.134h-4.65zm7.234 2.583a.517.517 0 01-.517.517h-.517a.517.517 0 01-.516-.517v-6.717h1.033c.285 0 .517.232.517.517v6.2z" fill="#F3CD82"/><path d="M11.367 8.008a.517.517 0 100-1.033.517.517 0 000 1.033z" fill="#F3CD82"/><path d="M16.533 24.542a2.067 2.067 0 104.134 0 2.067 2.067 0 00-4.134 0zm3.1 0a1.033 1.033 0 11-2.066 0 1.033 1.033 0 012.066 0z" fill="#fff"/><path d="M11.367 11.108a5.683 5.683 0 105.683 5.684 5.69 5.69 0 00-5.683-5.684zm0 10.334a4.65 4.65 0 110-9.3 4.65 4.65 0 010 9.3z" fill="#F3F3F3"/></g><defs><clipPath id="clip0"><path fill="#fff" d="M0 0h31v31H0z"/></clipPath></defs></svg>