<svg width="15" height="14" fill="none" xmlns="http://www.w3.org/2000/svg"><path fill-rule="evenodd" clip-rule="evenodd" d="M14.413 1.259H5.477A1.846 1.846 0 003.73.002c-.812 0-1.502.527-1.748 1.257H.587a.587.587 0 000 1.173h1.395c.246.73.936 1.257 1.748 1.257.811 0 1.501-.527 1.747-1.257h8.936a.587.587 0 100-1.173zM3.73 2.515a.67.67 0 11.001-1.341.67.67 0 01-.001 1.341zm10.683 3.772h-1.395A1.846 1.846 0 0011.27 5.03c-.811 0-1.501.527-1.747 1.257H.587a.587.587 0 000 1.173h8.936c.246.73.936 1.257 1.747 1.257.812 0 1.502-.527 1.748-1.257h1.395a.587.587 0 100-1.173zM11.27 7.543a.67.67 0 11.002-1.341.67.67 0 01-.002 1.341zm-3.28 3.77h6.423a.587.587 0 110 1.174H7.99a1.846 1.846 0 01-1.747 1.257 1.846 1.846 0 01-1.748-1.257H.587a.587.587 0 010-1.174h3.908a1.846 1.846 0 011.748-1.257c.811 0 1.501.528 1.747 1.257zm-2.417.587a.67.67 0 101.341-.001.67.67 0 00-1.341.001z" fill="url(#paint0_linear)"/><defs><linearGradient id="paint0_linear" x1="7.5" y1=".002" x2="7.5" y2="13.744" gradientUnits="userSpaceOnUse"><stop stop-color="#F5D89F"/><stop offset="1" stop-color="#DDB15C"/></linearGradient></defs></svg>