<svg width="40" height="28" fill="none" xmlns="http://www.w3.org/2000/svg"><rect x=".5" y=".5" width="39" height="27" rx="3.798" fill="url(#paint0_linear)" stroke="#F3CD82"/><path d="M25.547 15.39a.297.297 0 00.297-.296V14.5a.297.297 0 00-.594 0v.594a.297.297 0 00.297.297zm0 1.782a.297.297 0 00-.297.297v.593a.297.297 0 10.594 0v-.593a.297.297 0 00-.297-.297z" fill="#2D2D2D"/><path d="M24.57 22.429a.89.89 0 00.383.087h3.563a.892.892 0 00.89-.891v-7.719a.891.891 0 00-.89-.89h-3.563a.891.891 0 00-.89.89v1.485h-.594v-.594a.297.297 0 00-.297-.297H21.39a.297.297 0 00-.297.297v.594H20.5v-.594a.297.297 0 00-.087-.21.887.887 0 00.087-.384h.594a.297.297 0 000-.594H20.5a.297.297 0 00-.297-.296h-1.781a.297.297 0 00-.297.296v.594c0 .133.03.264.087.384a.296.296 0 00-.087.21v.594h-1.484v-.594h.297a.297.297 0 000-.594h-.297v-.297a.89.89 0 00-1.782 0v.594a.297.297 0 00.594 0v-.594a.297.297 0 11.594 0v1.485h-2.375v-.594a.89.89 0 00-1.781 0v.594a.297.297 0 00-.297.296v6.532a.297.297 0 00.297.297h12.468a.296.296 0 00.21-.087zm3.946-.507h-3.563a.297.297 0 01-.297-.297v-5.047h4.157v5.047a.298.298 0 01-.297.297zm-3.86-8.016a.297.297 0 01.297-.297h3.563a.297.297 0 01.297.297v2.078h-4.157v-2.078zm-1.781 2.078v1.188h-4.156v-1.188h4.156zm-4.156 1.782h4.156v2.968h-4.156v-2.968zm2.968-2.672h1.188v.297h-1.188v-.297zm-2.968.297v-.297h1.187v.297H18.72zm0-1.485h1.187v.296a.297.297 0 01-.297.298h-.593a.297.297 0 01-.297-.297v-.297zm-6.235.89a.297.297 0 01.594 0v.595h-.594v-.594zm11.579 7.126H12.188v-5.938h5.937v5.047a.297.297 0 00.297.297h4.75a.297.297 0 00.297-.297v-5.047h.593v5.938z" fill="#2D2D2D"/><path d="M21.39 18.36h-1.187a.297.297 0 000 .593h1.188a.297.297 0 100-.594zm-4.156.593h-4.156a.297.297 0 00-.297.297v1.781a.297.297 0 00.297.297h4.156a.297.297 0 00.297-.297V19.25a.297.297 0 00-.297-.297zm-.297 1.781h-3.562v-1.187h3.563v1.187zm.297-4.156h-4.156a.297.297 0 00-.297.297v1.188a.297.297 0 00.297.296h4.156a.297.297 0 00.297-.297v-1.187a.297.297 0 00-.297-.297zm-.297 1.188h-3.562v-.594h3.563v.594zm5.938-8.906a.297.297 0 00.297-.297v-.594a.297.297 0 00-.594 0v.594a.297.297 0 00.297.296zm3.563 0a.297.297 0 00.296-.297v-.594a.297.297 0 00-.593 0v.594a.297.297 0 00.297.296z" fill="#2D2D2D"/><path d="M11.89 8.266h2.672v1.187h-.296a.297.297 0 00-.266.164l-.89 1.781a.297.297 0 00.265.43h2.969a.297.297 0 00.265-.43l-.89-1.78a.296.296 0 00-.266-.165h-.297V8.266h3.86v1.187h-.297a.297.297 0 00-.266.164l-.89 1.781a.297.297 0 00.265.43h2.969a.297.297 0 00.265-.43l-.89-1.78a.297.297 0 00-.266-.165h-.297V8.266h2.078v2.375a.297.297 0 00.297.296h7.125a.297.297 0 00.297-.296V6.78a.297.297 0 00-.297-.297H11.891a.297.297 0 00-.297.297v1.19a.297.297 0 00.297.297zm3.973 2.968h-2.008l.594-1.187h.82l.594 1.187zm4.454 0h-2.009l.594-1.187h.82l.595 1.187zm1.964-4.156h2.672v2.375h-2.672V7.078zm6.532 3.266H22.28v-.297h6.532v.297zm0-.89h-3.266V7.077h3.265v2.375zM12.188 7.077h9.5v.594h-9.5v-.594zm7.422 9.798a.297.297 0 100-.594.297.297 0 000 .594zm1.187 0a.297.297 0 100-.594.297.297 0 000 .594zm1.187 0a.297.297 0 100-.594.297.297 0 000 .594z" fill="#2D2D2D"/><defs><linearGradient id="paint0_linear" x1="5" y1="5.25" x2="22.816" y2="31.859" gradientUnits="userSpaceOnUse"><stop stop-color="#F3CD82"/><stop offset="1" stop-color="#E0A93D"/></linearGradient></defs></svg>