<svg width="22" height="22" fill="none" xmlns="http://www.w3.org/2000/svg"><path d="M10.985 0C6.539 0 2.922 3.617 2.922 8.063c0 2.042 1.287 4.928 3.825 8.577a57.525 57.525 0 003.757 4.817l.48.543.482-.543a57.616 57.616 0 003.757-4.817c2.538-3.65 3.825-6.535 3.825-8.577C19.048 3.617 15.43 0 10.985 0zm3.189 15.895a58.449 58.449 0 01-3.19 4.148 58.427 58.427 0 01-3.181-4.138c-2.352-3.38-3.595-6.093-3.595-7.842a6.784 6.784 0 016.777-6.777 6.784 6.784 0 016.776 6.777c0 1.748-1.24 4.456-3.587 7.832z" fill="url(#paint0_linear)"/><path d="M10.985 2.98a4.764 4.764 0 00-4.759 4.759 4.764 4.764 0 004.759 4.758 4.764 4.764 0 004.758-4.758 4.764 4.764 0 00-4.758-4.759zm0 8.231A3.476 3.476 0 017.512 7.74a3.476 3.476 0 013.473-3.473 3.476 3.476 0 013.472 3.473 3.477 3.477 0 01-3.472 3.472z" fill="url(#paint1_linear)"/><defs><linearGradient id="paint0_linear" x1="4.938" y1="4.125" x2="19.557" y2="15.328" gradientUnits="userSpaceOnUse"><stop stop-color="#28BA97"/><stop offset="1" stop-color="#B3EFE1"/></linearGradient><linearGradient id="paint1_linear" x1="7.416" y1="4.764" x2="13.959" y2="11.605" gradientUnits="userSpaceOnUse"><stop stop-color="#28BA97"/><stop offset="1" stop-color="#B3EFE1"/></linearGradient></defs></svg>