<svg width="36" height="36" fill="none" xmlns="http://www.w3.org/2000/svg"><path d="M29.953 15.586a.703.703 0 00-.703.703v16.195c0 1.163-.946 2.11-2.11 2.11H8.86a2.112 2.112 0 01-2.11-2.11V3.516c0-1.163.946-2.11 2.11-2.11h18.28c1.164 0 2.11.947 2.11 2.11v7.148a.703.703 0 101.406 0V3.516A3.52 3.52 0 0027.141 0H8.859a3.52 3.52 0 00-3.515 3.516v28.968A3.52 3.52 0 008.859 36h18.282a3.52 3.52 0 003.515-3.516V16.29a.703.703 0 00-.703-.703z" fill="#575B5E"/><path d="M27.844 4.219c0-.776-.631-1.407-1.407-1.407H9.563c-.775 0-1.406.631-1.406 1.407v6.445c0 .776.631 1.406 1.406 1.406h16.876c.775 0 1.406-.63 1.406-1.406V4.22zm-1.407 6.445l-16.875.001V4.218h16.875v6.445zM18 20.508a2.816 2.816 0 00-2.813 2.812A2.816 2.816 0 0018 26.133a2.816 2.816 0 002.813-2.813A2.816 2.816 0 0018 20.508zm0 4.219a1.408 1.408 0 010-2.813 1.407 1.407 0 010 2.813zm-7.031-4.219a2.816 2.816 0 00-2.813 2.812 2.816 2.816 0 002.813 2.813 2.816 2.816 0 002.812-2.813 2.816 2.816 0 00-2.812-2.812zm0 4.219a1.408 1.408 0 010-2.813 1.407 1.407 0 010 2.813zM18 13.477a2.816 2.816 0 00-2.813 2.812A2.816 2.816 0 0018 19.102a2.816 2.816 0 002.813-2.813A2.816 2.816 0 0018 13.477zm0 4.218c-.775 0-1.406-.63-1.406-1.406 0-.775.63-1.406 1.406-1.406.775 0 1.406.63 1.406 1.406 0 .775-.63 1.406-1.406 1.406zm7.031-4.218a2.816 2.816 0 00-2.812 2.812 2.816 2.816 0 002.812 2.813 2.816 2.816 0 002.813-2.813 2.816 2.816 0 00-2.813-2.812zm0 4.218c-.775 0-1.406-.63-1.406-1.406a1.407 1.407 0 012.813 0c0 .775-.631 1.406-1.407 1.406zm-14.062-4.218a2.816 2.816 0 00-2.813 2.812 2.816 2.816 0 002.813 2.813 2.816 2.816 0 002.812-2.813 2.816 2.816 0 00-2.812-2.812zm0 4.218a1.407 1.407 0 11.001-2.813 1.407 1.407 0 01-.001 2.813zM18 27.54a2.816 2.816 0 00-2.813 2.812A2.816 2.816 0 0018 33.164a2.816 2.816 0 002.813-2.812A2.816 2.816 0 0018 27.539zm0 4.218a1.408 1.408 0 010-2.813 1.408 1.408 0 010 2.813zm-7.031-4.218a2.816 2.816 0 00-2.813 2.812 2.816 2.816 0 002.813 2.812 2.816 2.816 0 002.812-2.812 2.816 2.816 0 00-2.812-2.813zm0 4.218a1.407 1.407 0 010-2.813 1.408 1.408 0 010 2.813z" fill="#575B5E"/><path d="M18 8.145a.703.703 0 100-1.407.703.703 0 000 1.407zm4.57 0a.703.703 0 100-1.407.703.703 0 000 1.407zm-9.14 0a.703.703 0 100-1.407.703.703 0 000 1.407zm11.601 12.363a2.816 2.816 0 00-2.812 2.812v7.032a2.816 2.816 0 002.812 2.812 2.816 2.816 0 002.813-2.812V23.32a2.816 2.816 0 00-2.813-2.812zm1.407 9.844a1.408 1.408 0 01-2.813 0V23.32a1.407 1.407 0 012.813 0v7.032zm3.515-16.172a.703.703 0 100-1.406.703.703 0 000 1.406z" fill="#575B5E"/></svg>