<svg width="34" height="34" fill="none" xmlns="http://www.w3.org/2000/svg"><path d="M29.17 4.83A16.379 16.379 0 0017.513 0h-.002c-2.178 0-4.3.422-6.309 1.254a16.406 16.406 0 00-5.348 3.575 16.38 16.38 0 00-4.829 11.659c0 2.626.634 5.236 1.835 7.562L.087 31.967a1.515 1.515 0 00.362 1.584 1.514 1.514 0 001.584.362l7.917-2.771a16.538 16.538 0 007.562 1.834 16.38 16.38 0 0011.659-4.83A16.38 16.38 0 0034 16.489 16.38 16.38 0 0029.17 4.83zm-1.41 21.907a14.398 14.398 0 01-10.248 4.245 14.53 14.53 0 01-6.804-1.694 1.535 1.535 0 00-1.225-.095L2.29 31.71l2.518-7.193a1.54 1.54 0 00-.095-1.225 14.53 14.53 0 01-1.695-6.804A14.4 14.4 0 017.263 6.239a14.4 14.4 0 0110.248-4.245h.001c3.872 0 7.511 1.508 10.249 4.245a14.398 14.398 0 014.245 10.249c0 3.872-1.508 7.511-4.245 10.249z" fill="#575B5E"/><path d="M23.64 17.96a1.948 1.948 0 00-2.752 0l-.83.83a12.075 12.075 0 01-4.849-4.849l.83-.83a1.947 1.947 0 000-2.75l-2.236-2.236a1.948 1.948 0 00-2.75 0l-1.79 1.788c-1.023 1.025-1.075 2.786-.143 4.96.809 1.886 2.289 3.96 4.168 5.84 1.879 1.878 3.953 3.358 5.84 4.167 1.032.443 1.972.663 2.784.663.896 0 1.637-.27 2.175-.807l1.788-1.788c.368-.368.57-.856.57-1.376 0-.52-.202-1.008-.57-1.375L23.64 17.96zm-.963 5.366c-.293.292-1.192.395-2.763-.279-1.66-.71-3.512-2.041-5.216-3.745-1.704-1.704-3.034-3.556-3.745-5.215-.674-1.572-.571-2.471-.279-2.764l1.754-1.754 2.167 2.167-1.039 1.039a1.522 1.522 0 00-.281 1.772 14.068 14.068 0 006.178 6.178 1.523 1.523 0 001.773-.281l1.038-1.039 2.167 2.167-1.754 1.754z" fill="#575B5E"/></svg>