<svg width="33" height="30" fill="none" xmlns="http://www.w3.org/2000/svg"><path d="M29.956 3.8C28.362 1.99 26.151.995 23.73.995c-3.404 0-5.56 2.034-6.769 3.74-.313.442-.58.886-.804 1.304-.224-.418-.49-.862-.805-1.304-1.208-1.706-3.364-3.74-6.769-3.74-2.42 0-4.632.996-6.225 2.805C.838 5.525 0 7.835 0 10.305c0 2.69 1.05 5.19 3.304 7.87 2.014 2.396 4.912 4.866 8.268 7.725 1.25 1.066 2.543 2.168 3.92 3.372l.041.037a.944.944 0 001.247 0l.042-.037c1.376-1.204 2.67-2.306 3.92-3.372 3.356-2.86 6.254-5.329 8.268-7.724 2.254-2.681 3.304-5.182 3.304-7.87 0-2.47-.838-4.781-2.358-6.506zM19.514 24.46a437.735 437.735 0 00-3.357 2.88 441.059 441.059 0 00-3.357-2.881C6.232 18.863 1.893 15.165 1.893 10.305c0-2.009.67-3.874 1.885-5.254A6.32 6.32 0 018.583 2.89c2.596 0 4.274 1.599 5.224 2.94a11.223 11.223 0 011.45 2.882.947.947 0 001.8 0c.152-.466.597-1.679 1.45-2.882.95-1.341 2.628-2.94 5.223-2.94a6.32 6.32 0 014.806 2.162c1.215 1.38 1.884 3.245 1.884 5.254 0 4.86-4.338 8.558-10.906 14.154z" fill="#575B5E"/></svg>