<svg width="37" height="37" fill="none" xmlns="http://www.w3.org/2000/svg"><path d="M28.01 4.76a3.65 3.65 0 00-3.65-3.65H11.715a3.65 3.65 0 00-3.651 3.65v27.387a3.65 3.65 0 003.65 3.65H24.36a3.65 3.65 0 003.651-3.65V4.76zM9.8 7.44h16.476v20.206H9.799V7.44zm1.898-4.596h12.679c1.056 0 1.899.881 1.899 1.938v.924H9.799v-.924c0-1.057.843-1.938 1.9-1.938zm12.679 31.22H11.698A1.886 1.886 0 019.8 32.19v-2.81h16.477v2.788a1.886 1.886 0 01-1.877 1.895h-.022z" fill="#575B5E"/><path d="M19.735 30.855H16.34a.867.867 0 100 1.734h3.395a.867.867 0 100-1.734z" fill="#575B5E"/></svg>