<svg width="22" height="14" fill="none" xmlns="http://www.w3.org/2000/svg"><path d="M21.022 10.424c-.478-.574-1.019-1.086-1.542-1.58-.183-.175-.373-.355-.556-.534-.247-.24-.367-.41-.38-.536-.012-.124.072-.308.267-.579.29-.408.6-.817.9-1.212.267-.352.543-.715.807-1.081l.06-.082c.515-.713 1.047-1.451 1.333-2.35.082-.258.166-.64-.038-.974-.204-.335-.583-.434-.85-.48a2.145 2.145 0 00-.37-.024L17.31.99c-.578-.01-.979.265-1.197.815-.175.44-.382.948-.621 1.432-.458.932-1.04 2.006-1.883 2.901l-.037.04c-.058.061-.151.161-.2.184-.091-.057-.196-.385-.192-.557V5.79l-.002-3.863c0-.02-.002-.04-.004-.059-.075-.55-.221-1.103-1.094-1.276a.437.437 0 00-.085-.008H8.518c-.655 0-.907.328-1.185.653a.702.702 0 00-.086.66c.11.312.246.338.353.359.257.029.575.286.636.695.12.796.134 1.647.046 2.678-.024.276-.07.487-.144.662a.508.508 0 01-.051.096.509.509 0 01-.094-.053c-.267-.183-.467-.466-.662-.74C6.556 4.501 5.904 3.292 5.338 1.9c-.234-.57-.672-.89-1.234-.898a83.293 83.293 0 00-3.028.001c-.455.008-.775.152-.95.427-.174.275-.168.626.02 1.044 1.34 2.98 2.557 5.149 3.946 7.03.978 1.326 1.962 2.245 3.098 2.895 1.193.682 2.538 1.017 4.1 1.017.177 0 .357-.004.54-.013.963-.044 1.355-.427 1.398-1.365.024-.496.08-.897.27-1.246.054-.098.115-.163.162-.175.05-.013.14.018.24.083.183.118.34.279.47.42.13.143.263.292.39.435.273.305.555.62.85.92.668.682 1.438.994 2.29.928l3.06.002.028-.001a1.03 1.03 0 00.838-.536c.215-.382.212-.866-.01-1.295-.23-.446-.53-.83-.794-1.148zm.04 2.012c-.042.075-.094.088-.12.091l-3.06-.001c-.012 0-.024 0-.036.002-.603.05-1.115-.162-1.61-.667-.281-.286-.556-.594-.822-.891-.13-.145-.264-.295-.398-.442a3.332 3.332 0 00-.638-.564c-.397-.258-.726-.25-.932-.198-.204.051-.493.198-.716.604-.288.525-.351 1.09-.377 1.626-.015.327-.07.414-.094.436-.03.028-.131.08-.47.095-1.622.076-2.984-.215-4.164-.89-1.026-.587-1.925-1.43-2.828-2.654-1.35-1.83-2.538-3.948-3.852-6.87a.743.743 0 01-.067-.207.748.748 0 01.214-.027 82.521 82.521 0 012.998-.002c.145.003.31.046.436.353.592 1.455 1.276 2.722 2.09 3.872.217.305.486.685.882.956.362.248.656.236.84.183.182-.054.436-.203.607-.608.11-.261.177-.555.21-.927.095-1.102.078-2.019-.052-2.883-.092-.62-.218-1.133-.722-1.361.09-.047-.003 0 .137 0h3.432c.193.043.231.094.244.111.056.074.088.25.107.386l.003 3.827c-.008.367.17 1.181.778 1.404l.015.005c.553.181.918-.21 1.115-.419l.035-.037c.923-.98 1.545-2.126 2.031-3.116.253-.51.468-1.04.65-1.495.09-.229.173-.266.37-.262a.25.25 0 00.008 0l3.347.003c.078 0 .16 0 .222.012.16.027.226.06.247.073a.701.701 0 01-.046.251c-.243.765-.712 1.414-1.21 2.102l-.058.082a62.61 62.61 0 01-.795 1.064c-.303.4-.617.815-.915 1.233-.637.888-.58 1.477.214 2.252.187.183.38.365.566.542.528.5 1.026.972 1.47 1.505.234.28.498.618.69.99.1.194.076.37.024.46z" fill="#F3F3F3"/></svg>