<svg width="16" height="16" fill="none" xmlns="http://www.w3.org/2000/svg"><path d="M3.167 16h9.666A3.17 3.17 0 0016 12.833V3.167A3.17 3.17 0 0012.833 0H3.167A3.17 3.17 0 000 3.167v9.666A3.17 3.17 0 003.167 16zM1 3.167A2.17 2.17 0 013.167 1h9.666A2.17 2.17 0 0115 3.167v9.666A2.17 2.17 0 0112.833 15H3.167A2.17 2.17 0 011 12.833V3.167z" fill="#fff"/><path d="M8 12c2.206 0 4-1.794 4-4s-1.794-4-4-4-4 1.794-4 4 1.794 4 4 4zm0-7.021A3.025 3.025 0 0111.021 8 3.025 3.025 0 018 11.021 3.025 3.025 0 014.979 8 3.025 3.025 0 018 4.979z" fill="#F3F3F3"/><path d="M12 5c.57 0 1-.43 1-1 0-.594-.452-1-1-1-.57 0-1 .43-1 1 0 .593.45 1 1 1zm.102-1.096c.183.162-.234.36-.234.097 0-.157.212-.117.234-.097z" fill="#fff"/></svg>