<svg width="14" height="15" fill="none" xmlns="http://www.w3.org/2000/svg"><g clip-path="url(#clip0)"><path d="M4.025 13.171V0h-1v13.171L1.05 11.055l-.707.758 2.829 3.03c.195.21.511.21.707 0l2.828-3.03L6 11.055l-1.975 2.116z" fill="url(#paint0_linear)"/><path d="M13.707 3.187L10.88.157a.477.477 0 00-.707 0l-2.829 3.03.707.758 1.975-2.116v13.17h1V1.83L13 3.945l.707-.758z" fill="url(#paint1_linear)"/></g><defs><linearGradient id="paint0_linear" x1="3.525" y1="0" x2="3.525" y2="15" gradientUnits="userSpaceOnUse"><stop stop-color="#F5D89F"/><stop offset="1" stop-color="#DDB15C"/></linearGradient><linearGradient id="paint1_linear" x1="10.525" y1="0" x2="10.525" y2="15" gradientUnits="userSpaceOnUse"><stop stop-color="#F5D89F"/><stop offset="1" stop-color="#DDB15C"/></linearGradient><clipPath id="clip0"><path fill="#fff" d="M0 0h14v15H0z"/></clipPath></defs></svg>