<svg width="13" height="13" fill="none" xmlns="http://www.w3.org/2000/svg"><g clip-path="url(#clip0)"><path d="M9.883 8.6c-.424-.42-.955-.42-1.377 0-.321.319-.643.638-.96.963-.086.09-.16.108-.265.048-.208-.113-.43-.205-.63-.33-.934-.587-1.715-1.341-2.408-2.19-.343-.423-.65-.874-.863-1.383-.043-.103-.035-.17.049-.254.322-.311.636-.63.952-.95.441-.444.441-.963-.003-1.41-.251-.254-.503-.502-.754-.757-.26-.26-.517-.522-.78-.779-.424-.414-.954-.414-1.376.003-.325.32-.636.646-.966.96a1.57 1.57 0 00-.493 1.058c-.05.674.114 1.31.347 1.929.476 1.282 1.2 2.42 2.08 3.465a12.874 12.874 0 004.263 3.336c.747.362 1.52.64 2.362.687.579.032 1.082-.114 1.485-.566.276-.308.587-.59.88-.884.432-.438.435-.969.005-1.402-.514-.516-1.03-1.03-1.548-1.544z" fill="url(#paint0_linear)"/><path d="M9.367 6.444l.998-.17a4.461 4.461 0 00-1.247-2.408 4.437 4.437 0 00-2.543-1.269l-.14 1.004c.749.105 1.43.443 1.969.982.508.508.84 1.152.963 1.86z" fill="url(#paint1_linear)"/><path d="M10.928 2.105A7.36 7.36 0 006.708 0l-.141 1.004a6.382 6.382 0 013.646 1.817 6.378 6.378 0 011.789 3.45L13 6.1a7.414 7.414 0 00-2.072-3.996z" fill="url(#paint2_linear)"/></g><defs><linearGradient id="paint0_linear" x1="5.876" y1="1.248" x2="5.876" y2="13" gradientUnits="userSpaceOnUse"><stop stop-color="#F5D89F"/><stop offset="1" stop-color="#DDB15C"/></linearGradient><linearGradient id="paint1_linear" x1="8.4" y1="2.597" x2="8.4" y2="6.444" gradientUnits="userSpaceOnUse"><stop stop-color="#F5D89F"/><stop offset="1" stop-color="#DDB15C"/></linearGradient><linearGradient id="paint2_linear" x1="9.783" y1="0" x2="9.783" y2="6.271" gradientUnits="userSpaceOnUse"><stop stop-color="#F5D89F"/><stop offset="1" stop-color="#DDB15C"/></linearGradient><clipPath id="clip0"><path fill="#fff" d="M0 0h13v13H0z"/></clipPath></defs></svg>