<svg width="23" height="23" fill="none" xmlns="http://www.w3.org/2000/svg"><circle cx="11.5" cy="11.5" r="11" stroke="url(#paint0_linear)"/><path fill-rule="evenodd" clip-rule="evenodd" d="M15.888 6.665a6.141 6.141 0 00-4.362-1.8c-3.4 0-6.165 2.753-6.167 6.137 0 1.082.284 2.137.823 3.068l-.874 3.18 3.269-.853c.9.489 1.914.746 2.946.747h.003c3.398 0 6.165-2.753 6.166-6.137 0-1.64-.64-3.182-1.804-4.342zm-4.362 9.442h-.002a5.14 5.14 0 01-2.609-.71l-.187-.111-1.94.506.518-1.882-.122-.193a5.07 5.07 0 01-.783-2.715c0-2.812 2.3-5.1 5.127-5.1a5.1 5.1 0 013.623 1.496 5.058 5.058 0 011.5 3.609c-.001 2.812-2.3 5.1-5.125 5.1zm2.811-3.82a25.762 25.762 0 00-1.053-.499c-.14-.051-.244-.077-.346.077a8.936 8.936 0 01-.488.601c-.09.102-.18.115-.334.039-.154-.077-.65-.24-1.24-.762a4.633 4.633 0 01-.856-1.062c-.09-.153-.001-.228.067-.313.167-.206.334-.422.386-.524.05-.103.025-.192-.013-.269-.039-.077-.347-.831-.475-1.139-.126-.298-.252-.258-.347-.263a6.187 6.187 0 00-.295-.005.567.567 0 00-.411.192c-.141.153-.54.524-.54 1.279 0 .755.553 1.484.63 1.586.077.103 1.086 1.652 2.632 2.316.367.158.654.252.878.323.37.116.705.1.97.06.297-.044.912-.37 1.04-.729.129-.358.129-.665.09-.729-.038-.064-.14-.102-.295-.179z" fill="url(#paint1_linear)"/><defs><linearGradient id="paint0_linear" x1="8.392" y1="23" x2="14.608" y2=".622" gradientUnits="userSpaceOnUse"><stop stop-color="#2AB359"/><stop offset="1" stop-color="#97FCC5" stop-opacity=".87"/></linearGradient><linearGradient id="paint1_linear" x1="9.826" y1="17.25" x2="13.174" y2="5.2" gradientUnits="userSpaceOnUse"><stop stop-color="#2AB359"/><stop offset="1" stop-color="#97FCC5" stop-opacity=".87"/></linearGradient></defs></svg>