<svg width="29" height="29" fill="none" xmlns="http://www.w3.org/2000/svg"><g clip-path="url(#clip0)" fill="#fff"><path d="M28.666 9.037c-.512-.68-1.448-.768-2.207-.768h-1.905V7.262c0-1.006-.771-1.825-1.72-1.825H12.207V4.151c0-.852-.636-1.546-1.42-1.546H5.129c-.782 0-1.418.694-1.418 1.546v1.286H1.747c-.948 0-1.719.819-1.719 1.825v18.389l-.005.019a.567.567 0 00.543.725h23.431a.566.566 0 00.544-.408l4.242-14.536c.203-.699.412-1.71-.117-2.414zM1.16 7.262c0-.375.268-.692.586-.692h2.53a.566.566 0 00.566-.566V4.15c0-.236.15-.413.285-.413h5.659c.135 0 .286.177.286.413v1.853c0 .313.254.566.567.566h11.195c.318 0 .586.317.586.692V8.27H8.17c-1.067 0-1.914.1-2.58.582-.59.428-.974 1.098-1.326 2.311L1.16 21.776V7.262zm26.535 3.872l-4.123 14.128H1.323L5.35 11.48c.513-1.766.935-2.077 2.819-2.077h18.289c.706 0 1.143.106 1.3.316.115.152.197.521-.063 1.416z"/><path d="M26.254 10.195h-2.322a.566.566 0 100 1.133h2.322a.566.566 0 000-1.133zm-3.909 0h-.057a.566.566 0 000 1.133h.057a.566.566 0 000-1.133z"/></g><defs><clipPath id="clip0"><path fill="#fff" d="M0 0h29v29H0z"/></clipPath></defs></svg>