<svg width="25" height="25" fill="none" xmlns="http://www.w3.org/2000/svg"><path d="M14.697 7.617h-3.662a.488.488 0 00-.488.488v3.907H9.57a.488.488 0 000 .976h.977v1.953H9.57a.488.488 0 000 .977h.977v2.441a.488.488 0 00.976 0v-2.441h3.907a.488.488 0 000-.977h-3.907v-1.953h3.174c1.752 0 2.669-1.351 2.669-2.686 0-1.334-.917-2.685-2.669-2.685zm0 4.395h-3.174V8.594h3.174c.53 0 .969.18 1.27.52.268.305.422.738.422 1.188 0 .85-.523 1.71-1.692 1.71z" fill="#fff"/><path d="M12.5 2.93c-5.277 0-9.57 4.293-9.57 9.57s4.293 9.57 9.57 9.57 9.57-4.293 9.57-9.57-4.293-9.57-9.57-9.57zm0 18.164c-4.739 0-8.594-3.855-8.594-8.594 0-4.739 3.855-8.594 8.594-8.594 4.739 0 8.594 3.855 8.594 8.594 0 4.739-3.855 8.594-8.594 8.594zm8.496.39a.488.488 0 100-.976.488.488 0 000 .976z" fill="#fff"/><path d="M12.5 0C5.587 0 0 5.585 0 12.5 0 19.413 5.585 25 12.5 25c2.547 0 4.997-.76 7.084-2.197a.488.488 0 00-.553-.804 11.465 11.465 0 01-6.531 2.024C6.146 24.023.977 18.854.977 12.5S6.146.977 12.5.977 24.023 6.146 24.023 12.5c0 2.348-.7 4.607-2.024 6.53a.488.488 0 00.804.554A12.437 12.437 0 0025 12.5C25 5.587 19.415 0 12.5 0z" fill="#fff"/></svg>