<svg width="25" height="20" fill="none" xmlns="http://www.w3.org/2000/svg"><path fill-rule="evenodd" clip-rule="evenodd" d="M20.315 11.244a5.37 5.37 0 013.931 2.32A4.39 4.39 0 0125 16.05v1.762a2.017 2.017 0 01-2.014 2.015H7.88a.488.488 0 010-.977h5.866v-3.326a.488.488 0 01.977 0v3.326h.68c.807 0 1.464-.657 1.464-1.464V15.13a4.63 4.63 0 00-.3-1.65c-.66-1.728-2.366-2.975-4.153-3.314a3.71 3.71 0 01-.42 1.034c-.433.717-1.317 1.572-3.073 1.572-1.755 0-2.64-.854-3.073-1.572a3.7 3.7 0 01-.42-1.035 5.757 5.757 0 00-3.682 2.412 4.506 4.506 0 00-.77 2.553v2.255c0 .807.656 1.464 1.464 1.464h.695v-3.326a.488.488 0 01.977 0v3.815c0 .27-.219.488-.489.488H2.441A2.444 2.444 0 010 17.386V15.13a5.48 5.48 0 01.94-3.104A6.787 6.787 0 016.096 9.1l-.023-.019-.037-.031a3.566 3.566 0 01-1.199-2.468c-.55-.42-.8-1.028-.706-1.741.072-.55.374-.894.669-1.087-.07-1.11.178-1.99.74-2.621C6.216.37 7.308 0 8.875 0c1.06 0 2.51.215 3.39 1.238.192.222.344.47.459.742a6.8 6.8 0 011.098-.081c.964 0 2.282.196 3.086 1.13.27.315.456.683.559 1.101a7.08 7.08 0 01.416-.012c.852 0 2.017.174 2.731 1.005.44.51.632 1.178.574 1.989.231.17.453.453.51.882.075.572-.125 1.08-.555 1.43a2.891 2.891 0 01-.83 1.82zm-.131-3.928c.102-.676-.002-1.2-.31-1.556-.497-.579-1.46-.665-1.99-.665-.111 0-.22.002-.324.008v.006c-.003.064-.006.13-.012.197.332.23.539.59.59.989.086.652-.139 1.21-.635 1.598a3.3 3.3 0 01-1.051 2.192 6.13 6.13 0 012.687.832c.141-.077.272-.168.39-.271.425-.376.65-.889.65-1.485 0-.173.091-.334.241-.421.252-.147.347-.338.31-.62-.027-.21-.18-.257-.18-.257a.488.488 0 01-.366-.547zm-6.361-4.44c-.315 0-.604.018-.863.055.014.149.02.298.02.447v.088c0 .087 0 .17-.01.29.337.317.588.602.651 1.085.089.675-.16 1.325-.705 1.741a3.61 3.61 0 01-1.253 2.514 6.755 6.755 0 013 .869c.895-.236 1.637-.9 1.823-1.826.034-.168.05-.34.05-.51a.49.49 0 01.241-.422c.315-.184.44-.434.393-.786-.033-.258-.206-.338-.268-.359a.468.468 0 01-.366-.498c.004-.096.014-.19.023-.284.015-.153.03-.305.023-.462-.022-.472-.16-.858-.413-1.152-.254-.295-.897-.79-2.346-.79zm-8.26 3.02c.149.087.24.247.24.42 0 .802.304 1.494.878 2.001.563.497 1.342.77 2.195.77.789 0 1.595-.24 2.194-.77.574-.507.878-1.199.878-2 0-.172.093-.335.241-.422.09-.052.165-.109.228-.17.202-.196.277-.442.236-.758-.026-.195-.143-.383-.339-.445a.466.466 0 01-.364-.517l.007-.071c.036-.4.072-.787-.014-1.188a1.928 1.928 0 00-.417-.871c-.498-.58-1.44-.898-2.65-.898-1.273 0-2.126.263-2.608.805-.426.478-.583 1.222-.468 2.21a.467.467 0 01-.363.53.511.511 0 00-.338.445c-.055.416.092.711.463.928zm1.14 4.83c.443.71 1.19 1.07 2.22 1.07 1.029 0 1.775-.36 2.218-1.07.144-.23.234-.464.291-.66h-5.02c.056.195.147.43.29.66zm11.141 6.66a2.444 2.444 0 01-.489 1.464h2.337c.7 0 1.268-.568 1.268-1.267v-2.028c0-.566-.113-1.131-.341-1.65-.765-1.736-2.665-2.837-4.528-2.856 1.098 1.092 1.753 2.524 1.753 4.082v2.255zm5.142 1.464c.572 0 1.037-.465 1.037-1.038V16.05c0-.706-.201-1.375-.583-1.935a4.392 4.392 0 00-2.685-1.815 5.107 5.107 0 011.182 3.255v2.028c0 .45-.139.896-.394 1.267h1.443zm-17.193.002a.492.492 0 01.487.3.493.493 0 01-.188.598c-.369.234-.85-.119-.733-.542a.492.492 0 01.434-.356z" fill="#fff"/></svg>