<svg width="25" height="25" fill="none" xmlns="http://www.w3.org/2000/svg"><path d="M22.07 8.399c-.099 0-.196.005-.293.014V4.395A4.4 4.4 0 0017.383 0H7.617a4.4 4.4 0 00-4.394 4.395v4.018A2.933 2.933 0 000 11.328c0 1.008.508 1.933 1.36 2.474l.05.032c.586.373.828.532.921.734.112.244.112.719.11 1.581v5.433c0 .808.657 1.465 1.465 1.465v.488c0 .808.657 1.465 1.465 1.465s1.465-.657 1.465-1.465v-.488h11.328v.488c0 .808.657 1.465 1.465 1.465s1.465-.657 1.465-1.465v-.488c.807 0 1.464-.657 1.464-1.465v-5.433c0-.862-.001-1.337.11-1.58.094-.203.336-.363.923-.735l.05-.032A2.918 2.918 0 0025 11.328a2.933 2.933 0 00-2.93-2.93zM4.2 4.395A3.422 3.422 0 017.616.977h9.766A3.422 3.422 0 0120.8 4.395v4.293a2.937 2.937 0 00-1.66 2.645v1.186a24.76 24.76 0 00-13.282 0v-1.191c0-1.16-.678-2.166-1.66-2.64V4.395zm14.94 9.138v2.19a.488.488 0 01-.488.488H6.348a.489.489 0 01-.489-.488v-2.19a23.786 23.786 0 0113.282 0zM5.86 23.535a.489.489 0 01-.977 0v-.488h.976v.488zm14.257 0a.489.489 0 01-.976 0v-.488h.976v.488zm3-10.557l-.05.032c-.688.437-1.067.678-1.285 1.15-.202.438-.202.957-.2 1.99v5.432c0 .27-.22.488-.489.488H3.906a.489.489 0 01-.488-.488v-5.431c.001-1.034.002-1.553-.2-1.992-.218-.471-.597-.712-1.285-1.15l-.05-.03A1.955 1.955 0 012.93 9.375c1.076 0 1.951.873 1.954 1.947v4.4c0 .807.657 1.464 1.465 1.464h12.304c.808 0 1.465-.657 1.465-1.464v-4.395c0-1.077.876-1.953 1.953-1.953a1.955 1.955 0 011.046 3.603z" fill="#fff"/><path d="M13.96 20.117h-.022a.488.488 0 000 .977h.023a.488.488 0 000-.977zm4.692 0h-3.271a.488.488 0 100 .977h3.271a.488.488 0 000-.977zM10.889 1.953H7.617a.488.488 0 000 .977h3.272a.488.488 0 000-.977zm1.443 0h-.023a.488.488 0 000 .977h.023a.488.488 0 000-.977z" fill="#fff"/></svg>