<svg width="25" height="25" fill="none" xmlns="http://www.w3.org/2000/svg"><path d="M23.748 10.464a.458.458 0 00-.457.458v1.631a1.7 1.7 0 01-1.698 1.698h-2.61a.458.458 0 00-.323.134l-3.163 3.163v-2.84a.458.458 0 00-.458-.457H8.485a1.7 1.7 0 01-1.698-1.698V5.628a1.7 1.7 0 011.698-1.697h13.108a1.7 1.7 0 011.698 1.697V7.26a.458.458 0 10.915 0V5.628a2.616 2.616 0 00-2.613-2.613H8.485A2.616 2.616 0 005.87 5.628v5.881H2.54c-.977 0-1.771.795-1.771 1.771v4.22c0 .976.794 1.77 1.77 1.77h1.4l2.27 2.27a.458.458 0 00.781-.324V19.27h3.535c.976 0 1.77-.794 1.77-1.77v-2.332h2.286v3.486a.458.458 0 00.782.324l3.81-3.81h2.42a2.616 2.616 0 002.613-2.614v-1.631a.458.458 0 00-.457-.458zM11.38 17.498a.856.856 0 01-.855.856H6.532a.458.458 0 00-.457.458v1.298l-1.622-1.622a.458.458 0 00-.324-.134H2.54a.856.856 0 01-.855-.855V13.28c0-.471.384-.855.856-.855H5.87v.128a2.616 2.616 0 002.614 2.613h2.895v2.332z" fill="#fff"/><path d="M19.502 6.015h-8.926a.458.458 0 000 .915h8.926a.458.458 0 100-.915zm.458 2.93a.458.458 0 00-.458-.458h-8.926a.458.458 0 000 .916h8.926a.458.458 0 00.458-.458zm-9.385 2.014a.458.458 0 000 .915h5.15a.458.458 0 000-.915h-5.15zm13.174-2.326a.459.459 0 000 .915.459.459 0 000-.915z" fill="#fff"/></svg>