<svg width="25" height="25" fill="none" xmlns="http://www.w3.org/2000/svg"><g clip-path="url(#clip0)" fill="#fff"><path d="M10.336 14.48h.732v.733h-.732v-.732zm5.393-6.923a3.233 3.233 0 01-3.23 3.229c-1.192 0-2.163.97-2.163 2.163v.8h.732v-.8c0-.789.643-1.431 1.432-1.431a3.966 3.966 0 003.961-3.961A3.966 3.966 0 0012.5 3.595 3.967 3.967 0 008.555 7.19h-2.87a6.807 6.807 0 011.75-4.207l-.543-.49a7.54 7.54 0 00-1.949 5.064v.366h4.328v-.366a3.233 3.233 0 013.229-3.23 3.233 3.233 0 013.229 3.23z"/><path d="M12.5 0a7.54 7.54 0 00-5.064 1.948l.49.544A6.81 6.81 0 0112.5.732a6.832 6.832 0 016.824 6.825 6.82 6.82 0 01-5.118 6.609l-.275.07v2.508c0 .79-.642 1.432-1.431 1.432-.79 0-1.431-.642-1.431-1.432v-.798h-.733v.798c0 1.194.97 2.164 2.164 2.164 1.193 0 2.164-.97 2.164-2.164V14.8a7.553 7.553 0 005.393-7.242C20.056 3.39 16.666 0 12.5 0zm0 20.672c-1.194 0-2.164.971-2.164 2.164S11.306 25 12.5 25c1.193 0 2.164-.97 2.164-2.164a2.167 2.167 0 00-2.164-2.164zm0 3.596a1.433 1.433 0 010-2.863 1.433 1.433 0 010 2.863z"/><path d="M13.6 1.831h.732v.732h-.733v-.732zm1.464.732h.732v.733h-.732v-.733z"/></g><defs><clipPath id="clip0"><path fill="#fff" d="M0 0h25v25H0z"/></clipPath></defs></svg>