<svg width="25" height="25" fill="none" xmlns="http://www.w3.org/2000/svg"><path d="M20.8 10.823a.488.488 0 00-.488.489v11.247c0 .807-.657 1.464-1.464 1.464H6.152a1.466 1.466 0 01-1.465-1.464V2.44c0-.807.658-1.464 1.465-1.464h12.696c.807 0 1.465.657 1.465 1.464v4.965a.488.488 0 10.976 0V2.44A2.444 2.444 0 0018.848 0H6.152a2.444 2.444 0 00-2.441 2.441V22.56A2.444 2.444 0 006.152 25h12.696a2.444 2.444 0 002.441-2.441V11.312a.488.488 0 00-.488-.489z" fill="#fff"/><path d="M19.336 2.93a.978.978 0 00-.977-.977H6.641a.978.978 0 00-.977.977v4.476c0 .538.438.976.977.976h11.718a.978.978 0 00.977-.976V2.93zm-.977 4.476H6.641V2.93h11.718v4.476zM12.5 14.242a1.955 1.955 0 00-1.953 1.953c0 1.077.876 1.953 1.953 1.953a1.955 1.955 0 001.953-1.953A1.955 1.955 0 0012.5 14.24zm0 2.93a.978.978 0 010-1.954.978.978 0 010 1.953zm-4.883-2.93a1.955 1.955 0 00-1.953 1.953c0 1.077.876 1.953 1.953 1.953a1.955 1.955 0 001.953-1.953 1.955 1.955 0 00-1.953-1.954zm0 2.93a.978.978 0 010-1.954.978.978 0 010 1.953zM12.5 9.359a1.955 1.955 0 00-1.953 1.953c0 1.077.876 1.953 1.953 1.953a1.955 1.955 0 001.953-1.953A1.955 1.955 0 0012.5 9.359zm0 2.93a.978.978 0 010-1.954.978.978 0 010 1.953zm4.883-2.93a1.955 1.955 0 00-1.953 1.953c0 1.077.876 1.953 1.953 1.953a1.955 1.955 0 001.953-1.953 1.955 1.955 0 00-1.953-1.953zm0 2.93a.978.978 0 010-1.954.978.978 0 010 1.953zm-9.766-2.93a1.955 1.955 0 00-1.953 1.953c0 1.077.876 1.953 1.953 1.953a1.955 1.955 0 001.953-1.953 1.955 1.955 0 00-1.953-1.953zm0 2.93a.978.978 0 010-1.954.978.978 0 010 1.953zm4.883 6.835a1.955 1.955 0 00-1.953 1.954c0 1.076.876 1.953 1.953 1.953a1.955 1.955 0 001.953-1.953 1.955 1.955 0 00-1.953-1.954zm0 2.93a.978.978 0 010-1.953.978.978 0 010 1.953zm-4.883-2.93a1.955 1.955 0 00-1.953 1.954c0 1.076.876 1.953 1.953 1.953a1.955 1.955 0 001.953-1.953 1.955 1.955 0 00-1.953-1.954zm0 2.93a.978.978 0 010-1.953.978.978 0 010 1.953z" fill="#fff"/><path d="M12.5 5.656a.488.488 0 100-.977.488.488 0 000 .977zm3.174 0a.488.488 0 100-.977.488.488 0 000 .977zm-6.348 0a.488.488 0 100-.977.488.488 0 000 .977zm8.057 8.586a1.955 1.955 0 00-1.953 1.953v4.883c0 1.076.876 1.953 1.953 1.953a1.955 1.955 0 001.953-1.953v-4.883a1.955 1.955 0 00-1.953-1.954zm.976 6.835a.978.978 0 01-1.953 0v-4.882a.978.978 0 011.953 0v4.883zM20.8 9.847a.488.488 0 100-.977.488.488 0 000 .977z" fill="#fff"/></svg>