<svg width="25" height="25" fill="none" xmlns="http://www.w3.org/2000/svg"><g clip-path="url(#clip0)" fill="#fff"><path d="M17.561 21.912a.491.491 0 00-.69 0 .492.492 0 000 .69.492.492 0 00.69 0 .492.492 0 000-.69z"/><path d="M24.023 10.267a.488.488 0 00-.277-.44l-3.789-1.812 3.789-1.81a.488.488 0 000-.882L12.71.048a.488.488 0 00-.42 0L8.693 1.767a.488.488 0 10.42.88L12.5 1.03l9.903 4.734-9.903 4.734-9.903-4.734L5.43 4.409a.488.488 0 00-.421-.88L1.254 5.322a.488.488 0 000 .881l3.788 1.811-3.788 1.811a.488.488 0 000 .881l3.764 1.8-3.764 1.8a.488.488 0 000 .88l3.774 1.804-3.774 1.805a.488.488 0 000 .88l11.035 5.276a.489.489 0 00.421 0l2.64-1.262a.488.488 0 10-.421-.88l-2.43 1.16-9.902-4.734 3.522-1.684a.505.505 0 00.039-.02l6.131 2.93a.489.489 0 00.421 0l6.132-2.93a.493.493 0 00.038.02l3.523 1.684-3.523 1.684a.488.488 0 10.422.881l4.444-2.124a.488.488 0 000-.881L19.97 16.99l3.775-1.804a.488.488 0 000-.88l-3.764-1.8 3.764-1.8a.488.488 0 00.277-.44zm-1.62 4.48L12.5 19.48l-9.903-4.734 3.522-1.684.03-.016 6.14 2.936a.489.489 0 00.421 0l6.141-2.936.03.016 3.522 1.684zM12.5 15l-9.903-4.734L6.122 8.58a.501.501 0 00.048-.026l6.12 2.925a.487.487 0 00.42 0l6.12-2.925c.015.01.03.018.047.026l3.526 1.686L12.5 15z"/><path d="M7.509 2.694a.492.492 0 00-.69 0 .492.492 0 000 .69.491.491 0 00.69 0 .492.492 0 000-.69z"/></g><defs><clipPath id="clip0"><path fill="#fff" d="M0 0h25v25H0z"/></clipPath></defs></svg>